
<svg width="164" height="25" viewBox="0 0 164 25" fill="none" xmlns="http://www.w3.org/2000/svg">
<g clip-path="url(#clip0_0_12830)">
<g opacity="0.5">
<path d="M4.767 17.224C4.16967 17.224 3.64467 17.1353 3.192 16.958C2.73933 16.776 2.35433 16.559 2.037 16.307C1.72433 16.0503 1.47233 15.8007 1.281 15.558C1.09433 15.3153 0.963667 15.1333 0.889 15.012L1.498 14.228C1.582 14.3587 1.708 14.536 1.876 14.76C2.04867 14.9793 2.268 15.2033 2.534 15.432C2.8 15.656 3.11967 15.8473 3.493 16.006C3.86633 16.16 4.298 16.237 4.788 16.237C5.25467 16.237 5.67933 16.153 6.062 15.985C6.44933 15.817 6.75967 15.5673 6.993 15.236C7.22633 14.9047 7.343 14.494 7.343 14.004C7.343 13.5933 7.26133 13.2457 7.098 12.961C6.93933 12.6717 6.71767 12.4267 6.433 12.226C6.14833 12.0253 5.82167 11.848 5.453 11.694C5.089 11.5353 4.70633 11.3813 4.305 11.232C4.025 11.1247 3.731 10.9987 3.423 10.854C3.11967 10.7047 2.835 10.5203 2.569 10.301C2.303 10.077 2.086 9.80633 1.918 9.489C1.75467 9.17167 1.673 8.789 1.673 8.341C1.673 7.921 1.75233 7.52433 1.911 7.151C2.06967 6.77767 2.29133 6.44867 2.576 6.164C2.86067 5.87467 3.20133 5.64833 3.598 5.485C3.99467 5.32167 4.43333 5.24 4.914 5.24C5.376 5.24 5.80067 5.317 6.188 5.471C6.57533 5.62033 6.91367 5.81167 7.203 6.045C7.497 6.27367 7.72333 6.51167 7.882 6.759L7.336 7.494C7.20533 7.27933 7.02333 7.074 6.79 6.878C6.55667 6.682 6.28133 6.52333 5.964 6.402C5.65133 6.276 5.30367 6.213 4.921 6.213C4.445 6.213 4.039 6.31567 3.703 6.521C3.37167 6.72633 3.11967 6.99233 2.947 7.319C2.77433 7.641 2.688 7.98167 2.688 8.341C2.688 8.66767 2.75567 8.94533 2.891 9.174C3.02633 9.40267 3.206 9.59633 3.43 9.755C3.654 9.909 3.899 10.042 4.165 10.154C4.43567 10.266 4.70633 10.371 4.977 10.469C5.42967 10.637 5.86367 10.8167 6.279 11.008C6.699 11.1947 7.07233 11.4187 7.399 11.68C7.72567 11.9367 7.98467 12.2517 8.176 12.625C8.36733 12.9937 8.463 13.4417 8.463 13.969C8.463 14.6597 8.29967 15.2477 7.973 15.733C7.64633 16.2183 7.20533 16.5893 6.65 16.846C6.09467 17.098 5.467 17.224 4.767 17.224ZM14.4983 17.224C13.7516 17.224 13.0773 17.063 12.4753 16.741C11.878 16.419 11.4043 15.971 11.0543 15.397C10.7043 14.823 10.5293 14.1627 10.5293 13.416C10.5293 12.6647 10.7043 12.0043 11.0543 11.435C11.4043 10.861 11.878 10.413 12.4753 10.091C13.0726 9.769 13.747 9.608 14.4983 9.608C15.245 9.608 15.917 9.769 16.5143 10.091C17.1163 10.413 17.5923 10.861 17.9423 11.435C18.2923 12.0043 18.4673 12.6647 18.4673 13.416C18.4673 14.1627 18.2923 14.823 17.9423 15.397C17.5923 15.971 17.1163 16.419 16.5143 16.741C15.917 17.063 15.245 17.224 14.4983 17.224ZM14.4983 16.314C15.0583 16.314 15.5576 16.1903 15.9963 15.943C16.435 15.6957 16.7803 15.355 17.0323 14.921C17.2843 14.4823 17.4103 13.9807 17.4103 13.416C17.4103 12.8513 17.2843 12.352 17.0323 11.918C16.7803 11.4793 16.435 11.1363 15.9963 10.889C15.5576 10.6417 15.0583 10.518 14.4983 10.518C13.9383 10.518 13.439 10.6417 13.0003 10.889C12.5616 11.1363 12.2163 11.4793 11.9643 11.918C11.7123 12.352 11.5863 12.8513 11.5863 13.416C11.5863 13.976 11.7123 14.4753 11.9643 14.914C12.2163 15.3527 12.5616 15.6957 13.0003 15.943C13.439 16.1903 13.9383 16.314 14.4983 16.314ZM23.8307 17.224C22.7434 17.224 21.9664 16.979 21.4997 16.489C21.0331 15.999 20.7997 15.18 20.7997 14.032V9.832H21.8217V13.85C21.8217 14.7553 21.9757 15.4017 22.2837 15.789C22.5917 16.1717 23.1074 16.363 23.8307 16.363C24.5587 16.363 25.0744 16.1717 25.3777 15.789C25.6857 15.4017 25.8397 14.7553 25.8397 13.85V9.832H26.8617V14.032C26.8617 15.18 26.6284 15.999 26.1617 16.489C25.6997 16.979 24.9227 17.224 23.8307 17.224ZM29.7511 17V9.832H30.7731V10.889C31.0018 10.469 31.2958 10.1517 31.6551 9.937C32.0191 9.71767 32.4391 9.608 32.9151 9.608C33.1251 9.608 33.3374 9.63133 33.5521 9.678C33.7714 9.72467 33.9604 9.78533 34.1191 9.86L33.6991 10.721C33.5591 10.651 33.3981 10.5973 33.2161 10.56C33.0388 10.5227 32.8684 10.504 32.7051 10.504C32.3738 10.504 32.0611 10.588 31.7671 10.756C31.4731 10.924 31.2328 11.1433 31.0461 11.414C30.8641 11.68 30.7731 11.9647 30.7731 12.268V17H29.7511ZM39.2491 17.224C38.7124 17.224 38.2084 17.1307 37.7371 16.944C37.2658 16.7527 36.8528 16.4843 36.4981 16.139C36.1434 15.7937 35.8658 15.39 35.6651 14.928C35.4644 14.466 35.3641 13.962 35.3641 13.416C35.3641 12.8747 35.4621 12.373 35.6581 11.911C35.8541 11.449 36.1271 11.0453 36.4771 10.7C36.8318 10.3547 37.2448 10.0863 37.7161 9.895C38.1874 9.70367 38.6984 9.608 39.2491 9.608C39.7204 9.608 40.1684 9.678 40.5931 9.818C41.0178 9.958 41.3841 10.1517 41.6921 10.399L41.2721 11.085C40.7494 10.679 40.1148 10.476 39.3681 10.476C38.7801 10.476 38.2621 10.6067 37.8141 10.868C37.3708 11.1247 37.0254 11.477 36.7781 11.925C36.5308 12.3683 36.4071 12.8653 36.4071 13.416C36.4071 13.9713 36.5331 14.473 36.7851 14.921C37.0371 15.3643 37.3871 15.7143 37.8351 15.971C38.2831 16.2277 38.7964 16.356 39.3751 16.356C39.7391 16.356 40.0821 16.3047 40.4041 16.202C40.7308 16.0947 41.0178 15.943 41.2651 15.747L41.6921 16.433C41.3794 16.6757 41.0131 16.867 40.5931 17.007C40.1731 17.1517 39.7251 17.224 39.2491 17.224ZM47.2752 17.224C46.5238 17.224 45.8518 17.0583 45.2592 16.727C44.6712 16.3957 44.2092 15.9453 43.8732 15.376C43.5372 14.802 43.3692 14.158 43.3692 13.444C43.3692 12.9073 43.4648 12.408 43.6562 11.946C43.8522 11.4793 44.1228 11.071 44.4682 10.721C44.8135 10.371 45.2148 10.098 45.6722 9.902C46.1295 9.706 46.6172 9.608 47.1352 9.608C47.8445 9.608 48.4745 9.76433 49.0252 10.077C49.5805 10.385 50.0192 10.812 50.3412 11.358C50.6678 11.904 50.8405 12.534 50.8592 13.248C50.8592 13.304 50.8568 13.3507 50.8522 13.388C50.8522 13.4207 50.8475 13.4627 50.8382 13.514H44.3842C44.3842 14.074 44.5102 14.5687 44.7622 14.998C45.0142 15.4273 45.3595 15.7657 45.7982 16.013C46.2415 16.2557 46.7478 16.377 47.3172 16.377C47.8585 16.377 48.3438 16.265 48.7732 16.041C49.2072 15.8123 49.5688 15.4857 49.8582 15.061L50.6142 15.467C50.2735 16.0223 49.8092 16.454 49.2212 16.762C48.6378 17.07 47.9892 17.224 47.2752 17.224ZM44.4402 12.744H49.8372C49.7765 12.296 49.6202 11.9017 49.3682 11.561C49.1162 11.2157 48.7965 10.945 48.4092 10.749C48.0265 10.553 47.6065 10.455 47.1492 10.455C46.6778 10.455 46.2485 10.553 45.8612 10.749C45.4738 10.9403 45.1542 11.2087 44.9022 11.554C44.6548 11.8947 44.5008 12.2913 44.4402 12.744ZM57.9054 10.567C57.7748 10.567 57.6558 10.5367 57.5484 10.476C57.4411 10.4107 57.3548 10.3243 57.2894 10.217C57.2241 10.105 57.1914 9.98367 57.1914 9.853C57.1914 9.71767 57.2241 9.59633 57.2894 9.489C57.3548 9.38167 57.4411 9.29533 57.5484 9.23C57.6558 9.16467 57.7748 9.132 57.9054 9.132C58.0408 9.132 58.1621 9.16467 58.2694 9.23C58.3768 9.29533 58.4631 9.38167 58.5284 9.489C58.5938 9.59633 58.6264 9.71767 58.6264 9.853C58.6264 9.98367 58.5938 10.105 58.5284 10.217C58.4631 10.3243 58.3768 10.4107 58.2694 10.476C58.1621 10.5367 58.0408 10.567 57.9054 10.567ZM57.9054 17.224C57.7748 17.224 57.6558 17.1913 57.5484 17.126C57.4411 17.0607 57.3548 16.9743 57.2894 16.867C57.2241 16.755 57.1914 16.6337 57.1914 16.503C57.1914 16.3723 57.2241 16.2533 57.2894 16.146C57.3548 16.034 57.4411 15.9477 57.5484 15.887C57.6558 15.8217 57.7748 15.789 57.9054 15.789C58.0408 15.789 58.1621 15.8217 58.2694 15.887C58.3768 15.9477 58.4631 16.034 58.5284 16.146C58.5938 16.2533 58.6264 16.3723 58.6264 16.503C58.6264 16.6337 58.5938 16.755 58.5284 16.867C58.4631 16.9743 58.3768 17.0607 58.2694 17.126C58.1621 17.1913 58.0408 17.224 57.9054 17.224ZM67.7061 17L64.3811 5.45H66.9011L69.0851 13.892L71.5491 5.45H73.2501L75.7071 13.892L77.8911 5.45H80.4181L77.0861 17H74.5661L72.3961 9.825L70.2331 17H67.7061ZM81.9651 17V9.832H84.1141V17H81.9651ZM83.0431 8.341C82.8097 8.341 82.5951 8.285 82.3991 8.173C82.2077 8.05633 82.0537 7.9 81.9371 7.704C81.8204 7.508 81.7621 7.29333 81.7621 7.06C81.7621 6.82667 81.8204 6.61433 81.9371 6.423C82.0537 6.23167 82.2077 6.08 82.3991 5.968C82.5951 5.85133 82.8097 5.793 83.0431 5.793C83.2764 5.793 83.4887 5.85133 83.6801 5.968C83.8714 6.08 84.0231 6.23167 84.1351 6.423C84.2517 6.61433 84.3101 6.82667 84.3101 7.06C84.3101 7.29333 84.2517 7.508 84.1351 7.704C84.0231 7.9 83.8714 8.05633 83.6801 8.173C83.4887 8.285 83.2764 8.341 83.0431 8.341ZM86.6479 17V4.96H88.7969V12.45L91.4429 9.832H94.2289L90.7219 13.346L94.3899 17H91.6319L88.7969 14.165V17H86.6479ZM95.7053 17V9.832H97.8543V17H95.7053ZM96.7833 8.341C96.55 8.341 96.3353 8.285 96.1393 8.173C95.948 8.05633 95.794 7.9 95.6773 7.704C95.5606 7.508 95.5023 7.29333 95.5023 7.06C95.5023 6.82667 95.5606 6.61433 95.6773 6.423C95.794 6.23167 95.948 6.08 96.1393 5.968C96.3353 5.85133 96.55 5.793 96.7833 5.793C97.0166 5.793 97.229 5.85133 97.4203 5.968C97.6116 6.08 97.7633 6.23167 97.8753 6.423C97.992 6.61433 98.0503 6.82667 98.0503 7.06C98.0503 7.29333 97.992 7.508 97.8753 7.704C97.7633 7.9 97.6116 8.05633 97.4203 8.173C97.229 8.285 97.0166 8.341 96.7833 8.341ZM100.388 20.64V9.832H102.537V10.707C102.826 10.357 103.186 10.0863 103.615 9.895C104.044 9.70367 104.506 9.608 105.001 9.608C105.692 9.608 106.305 9.77367 106.842 10.105C107.383 10.4363 107.808 10.889 108.116 11.463C108.429 12.037 108.585 12.688 108.585 13.416C108.585 14.1347 108.431 14.7833 108.123 15.362C107.815 15.936 107.393 16.391 106.856 16.727C106.324 17.0583 105.722 17.224 105.05 17.224C104.56 17.224 104.098 17.1237 103.664 16.923C103.23 16.7177 102.854 16.4283 102.537 16.055V20.64H100.388ZM104.413 15.397C104.786 15.397 105.115 15.313 105.4 15.145C105.689 14.9723 105.916 14.739 106.079 14.445C106.242 14.1463 106.324 13.8057 106.324 13.423C106.324 13.0403 106.24 12.6997 106.072 12.401C105.904 12.1023 105.678 11.8667 105.393 11.694C105.108 11.5213 104.782 11.435 104.413 11.435C104.044 11.435 103.713 11.5213 103.419 11.694C103.13 11.8667 102.901 12.1023 102.733 12.401C102.565 12.695 102.481 13.0357 102.481 13.423C102.481 13.801 102.563 14.1393 102.726 14.438C102.894 14.7367 103.125 14.9723 103.419 15.145C103.713 15.313 104.044 15.397 104.413 15.397ZM114.004 17.224C113.229 17.224 112.534 17.0583 111.918 16.727C111.307 16.391 110.821 15.936 110.462 15.362C110.103 14.788 109.923 14.1393 109.923 13.416C109.923 12.884 110.023 12.387 110.224 11.925C110.429 11.463 110.714 11.0593 111.078 10.714C111.442 10.364 111.864 10.0933 112.345 9.902C112.826 9.706 113.346 9.608 113.906 9.608C114.653 9.608 115.306 9.76433 115.866 10.077C116.431 10.385 116.869 10.8143 117.182 11.365C117.499 11.9157 117.658 12.5573 117.658 13.29C117.658 13.3507 117.656 13.4043 117.651 13.451C117.651 13.493 117.644 13.5747 117.63 13.696H112.135C112.135 14.06 112.217 14.3773 112.38 14.648C112.548 14.9187 112.781 15.131 113.08 15.285C113.379 15.4343 113.726 15.509 114.123 15.509C114.496 15.509 114.825 15.4367 115.11 15.292C115.399 15.1473 115.677 14.9163 115.943 14.599L117.49 15.376C117.154 15.9547 116.678 16.4073 116.062 16.734C115.446 17.0607 114.76 17.224 114.004 17.224ZM112.212 12.506H115.544C115.497 12.2307 115.397 11.9927 115.243 11.792C115.094 11.5913 114.902 11.4373 114.669 11.33C114.436 11.2227 114.172 11.169 113.878 11.169C113.565 11.169 113.29 11.2227 113.052 11.33C112.814 11.4373 112.623 11.5913 112.478 11.792C112.333 11.9927 112.245 12.2307 112.212 12.506ZM122.565 17.224C121.916 17.224 121.324 17.063 120.787 16.741C120.255 16.4143 119.83 15.964 119.513 15.39C119.196 14.816 119.037 14.158 119.037 13.416C119.037 12.688 119.191 12.0393 119.499 11.47C119.807 10.896 120.229 10.4433 120.766 10.112C121.307 9.776 121.926 9.608 122.621 9.608C123.125 9.608 123.592 9.706 124.021 9.902C124.45 10.0933 124.807 10.3617 125.092 10.707V4.96H127.241V17H125.092V16.055C124.775 16.4237 124.399 16.7107 123.965 16.916C123.531 17.1213 123.064 17.224 122.565 17.224ZM123.209 15.397C123.587 15.397 123.921 15.313 124.21 15.145C124.499 14.9723 124.726 14.7367 124.889 14.438C125.057 14.1393 125.141 13.801 125.141 13.423C125.141 13.0403 125.057 12.6997 124.889 12.401C124.726 12.1023 124.499 11.8667 124.21 11.694C123.921 11.5213 123.589 11.435 123.216 11.435C122.847 11.435 122.518 11.5213 122.229 11.694C121.944 11.8667 121.718 12.1047 121.55 12.408C121.382 12.7067 121.298 13.0473 121.298 13.43C121.298 13.808 121.38 14.1463 121.543 14.445C121.706 14.739 121.933 14.9723 122.222 15.145C122.511 15.313 122.84 15.397 123.209 15.397ZM129.762 17V9.832H131.911V17H129.762ZM130.84 8.341C130.607 8.341 130.392 8.285 130.196 8.173C130.005 8.05633 129.851 7.9 129.734 7.704C129.617 7.508 129.559 7.29333 129.559 7.06C129.559 6.82667 129.617 6.61433 129.734 6.423C129.851 6.23167 130.005 6.08 130.196 5.968C130.392 5.85133 130.607 5.793 130.84 5.793C131.073 5.793 131.286 5.85133 131.477 5.968C131.668 6.08 131.82 6.23167 131.932 6.423C132.049 6.61433 132.107 6.82667 132.107 7.06C132.107 7.29333 132.049 7.508 131.932 7.704C131.82 7.9 131.668 8.05633 131.477 8.173C131.286 8.285 131.073 8.341 130.84 8.341ZM137.434 17.224C136.776 17.224 136.176 17.0607 135.635 16.734C135.098 16.4027 134.671 15.95 134.354 15.376C134.041 14.7973 133.885 14.1393 133.885 13.402C133.885 12.6833 134.036 12.0393 134.34 11.47C134.643 10.896 135.061 10.4433 135.593 10.112C136.129 9.776 136.743 9.608 137.434 9.608C137.942 9.608 138.416 9.706 138.855 9.902C139.298 10.0933 139.66 10.3617 139.94 10.707V9.832H142.089V17H139.94V16.055C139.613 16.433 139.237 16.7223 138.813 16.923C138.388 17.1237 137.928 17.224 137.434 17.224ZM138.071 15.397C138.444 15.397 138.775 15.313 139.065 15.145C139.354 14.9723 139.58 14.7367 139.744 14.438C139.907 14.1393 139.989 13.7987 139.989 13.416C139.989 13.0287 139.905 12.688 139.737 12.394C139.573 12.0953 139.347 11.862 139.058 11.694C138.773 11.5213 138.444 11.435 138.071 11.435C137.702 11.435 137.373 11.5213 137.084 11.694C136.794 11.862 136.566 12.0953 136.398 12.394C136.23 12.6927 136.146 13.0333 136.146 13.416C136.146 13.7987 136.227 14.1393 136.391 14.438C136.559 14.7367 136.787 14.9723 137.077 15.145C137.366 15.313 137.697 15.397 138.071 15.397Z" fill="white"/>
<path d="M64.0801 18.4H143.349V19.1H64.0801V18.4Z" fill="white"/>
</g>
<path opacity="0.5" fill-rule="evenodd" clip-rule="evenodd" d="M161.75 8C162.37 8 162.9 8.22006 163.34 8.66009C163.78 9.10013 164 9.63022 164 10.25V17.7499C164 18.3697 163.78 18.8997 163.34 19.3398C162.9 19.7799 162.37 20 161.75 20H154.25C153.63 20 153.1 19.7799 152.66 19.3398C152.22 18.8997 152 18.3696 152 17.7499V10.25C152 9.63022 152.22 9.10021 152.66 8.66009C153.1 8.22006 153.63 8 154.25 8H161.75ZM161.695 14.7108C161.898 14.6222 162 14.4687 162 14.2499H162V10.5C162 10.3646 161.951 10.2473 161.852 10.1484C161.753 10.0494 161.635 9.9999 161.5 9.9999H157.75C157.531 9.9999 157.378 10.1016 157.289 10.3046C157.201 10.5183 157.237 10.7004 157.399 10.8515L158.524 11.9765L154.352 16.1484C154.253 16.2473 154.203 16.3646 154.203 16.4999C154.203 16.6352 154.253 16.7526 154.352 16.8514L155.148 17.6484C155.247 17.7473 155.365 17.7969 155.5 17.7969C155.636 17.7969 155.753 17.7473 155.852 17.6484L160.023 13.4765L161.148 14.6015C161.242 14.7003 161.359 14.7499 161.5 14.7499C161.562 14.7499 161.628 14.7369 161.695 14.7108Z" fill="white"/>
</g>
<defs>
<clipPath id="clip0_0_12830">
<rect width="164" height="25" fill="white"/>
</clipPath>
</defs>
</svg>
